<?xml version="1.0" encoding="utf-8"?>
<!-- Generator: Adobe Illustrator 15.1.0, SVG Export Plug-In . SVG Version: 6.00 Build 0)  -->
<!DOCTYPE svg PUBLIC "-//W3C//DTD SVG 1.1//EN" "http://www.w3.org/Graphics/SVG/1.1/DTD/svg11.dtd">
<svg version="1.1" id="Layer_1" xmlns="http://www.w3.org/2000/svg" xmlns:xlink="http://www.w3.org/1999/xlink" x="0px" y="0px"
	 width="376px" height="138px" viewBox="0 0 376 138" enable-background="new 0 0 376 138" xml:space="preserve">
<rect x="-41.5" y="-41.5" fill="none" width="458.757" height="222.709"/>
<path fill="#E31837" d="M353.654,107.845c0,0-87.492,20.702-177.831,20.702c-90.336,0-167.503-20.702-167.503-20.702l21.701-87.032
	c0,0,87.231-19.663,177.566-19.663c90.338,0,167.769,19.663,167.769,19.663L353.654,107.845z"/>
<path fill="#455560" d="M0.66,138.573l5.872-23.552c0,0,77.426,19.662,167.762,19.662c90.339,0,177.573-19.662,177.573-19.662
	l-5.875,23.552H0.66z"/>
<path fill="#FFFFFF" d="M32.44,65.01c-1.282,0-1.37-2.208-1.37-4.315c0-8.075,4.361-16.864,9.121-16.864
	c4.457,0,7.857,6.977,7.857,6.977s2.293-14.535,9.201-14.535c3.163,0,6.852,1.581,8.258,2.636c1.405,1.054,3.545,3.329,2.108,8.435
	c-0.762,2.705-1.34,28.211-1.34,28.211s3.259-19.917,11.347-40.197c0.977-2.448,4.783-5.794,7.243-5.794
	c2.46,0,8.021,2.819,9.778,4.226c1.756,1.404,2.805,3.334,1.785,8.634c-4.924,25.647-5.08,33.387-5.27,39.006
	c-0.38,11.268,3.846,15.01,6.502,15.01c4.949,0,5.094-7.102,6.85-7.102c1.759,0,2.285,1.403,1.582,2.984
	c-0.701,1.58-4.932,13.529-13.354,13.529c-9.322,0-13.974-11.304-13.306-24.623c0.502-10.002,3.819-36.873,3.819-36.873
	S77.5,54.915,70.953,89.162c-0.713,3.723-2.023,8.432-7.029,8.432c-5.375,0-7.065-1.759-7.186-6.104
	c-0.556-20.035-1.448-40.438-1.448-40.438s-3.139,8.812-3.622,15.934c-0.548,8.083-1.735,29.189-1.976,31.485
	c-0.317,3.039-3.094,7.029-8.433,7.029c-2.285,0-4.569-1.057-4.041-3.689c0.528-2.634,2.862-28.063,2.982-33.498
	c0.074-3.337,1.028-15.935-0.803-15.935C36.895,52.375,33.599,65.01,32.44,65.01"/>
<path fill="#FFFFFF" d="M114.939,62.007c0,1.471-2.407,18.718-7.354,18.718c-2.674,0-2.406-4.812-2.406-6.281
	c0-7.221,2.981-15.778,7.221-15.778C114.004,58.665,114.939,59.333,114.939,62.007 M129.78,63.478c0,0-4.876,12.702-7.089,12.702
	c-2.115,0,1.774-15.725,2.575-18.801c0.492-1.883,0.597-3.437-2.037-3.93c-2.983-0.558-6.346-0.824-7,2.598
	c-1.409-1.812-3.12-2.73-5.436-2.73c-11.632,0-14.974,17.604-14.974,23.354c0,4.946,2.086,10.832,8.504,10.832
	c5.478,0,8.877-4.081,10.962-9.106c0.76,2.438,2.174,4.067,4.6,4.067c8.559,0,12.301-14.173,12.301-14.173L129.78,63.478z"/>
<path fill="#FFFFFF" d="M165.028,59.105c0,0-4.426,9.589-7.818,9.589c-1.621,0-1.475-6.49-1.475-8.703
	c0-2.213,1.031-9.441,2.507-12.392c0.797-1.594-2.065-4.278-6.638-4.278c-5.635,0-9.653,7.17-11.83,12.385
	c0.089-2.145,0.288-4.204,0.652-5.895c0.394-1.823-2.395-3.244-5.344-2.949c-2.644,0.265-4.984,1.186-5.606,4.131
	c-1.622,7.67-1.181,18.438-0.147,23.896c0.501,2.646,2.803,3.394,6.639,2.654c2.191-0.421,4.426-1.473,3.834-5.162
	c0,0,1.182-10.62,2.509-12.981c0.647-1.149,1.315-1.475,2.213-1.475c1.328,0,0.885,7.376,0.737,10.031
	c-0.131,2.375,1.181,7.817,8.408,7.817c9.883,0,12.539-10.179,12.539-10.179L165.028,59.105z"/>
<path fill="#FFFFFF" d="M177.917,37.399c0,2.852-2.947,5.162-6.584,5.162s-6.584-2.311-6.584-5.162c0-2.854,2.947-5.165,6.584-5.165
	S177.917,34.544,177.917,37.399"/>
<path fill="#FFFFFF" d="M169.784,43.724c4.775,0,5.938,1.419,5.68,3.614c-0.26,2.194-3.615,21.043-1.161,21.043
	c5.938,0,9.423-13.168,9.423-13.168l2.971,8.648c0,0-4.262,10.329-13.813,10.329c-8.004,0-9.627-8.414-9.94-10.715
	c-0.775-5.68,0.129-15.492,0.387-17.041C163.587,44.885,166.427,43.724,169.784,43.724"/>
<path fill="#FFFFFF" d="M206.318,62.372c0,0-4.234,5.379-8.354,5.379c-3.09,0-4.233-2.86-2.519-13.731
	c0.507-3.205,1.176-6.488,1.884-9.577c3.774-0.207,6.996-0.305,7.749-0.258c1.263,0.079,1.238-1.378,1.011-2.409
	c-0.229-1.029-1.362-3.136-5.142-2.907c-0.186,0.012-1.727-0.026-2.258,0.016c1.39-5.336,2.633-9.258,2.82-9.694
	c0.344-0.801-0.703-2.267-1.945-2.06c-1.373,0.229-4.576,0.114-6.18,0.229c-1.6,0.115-4.119,1.258-4.919,3.891
	c-0.244,0.803-1.207,4.386-2.277,8.697c-2.916,0.259-6.305,0.457-6.305,0.457c-1.029,0.114-1.197,0.793-1.029,2.288
	c0.246,2.205,0.916,3.434,5.264,3.089c0.167-0.012,0.401-0.033,0.686-0.061c-1.008,4.382-1.875,8.632-2.06,10.932
	c-0.458,5.721-0.343,16.707,13.389,16.707c7.322,0,13.271-7.209,13.271-7.209L206.318,62.372z"/>
<path fill="#FFFFFF" d="M223.072,60.162c0,3.902-1.514,8.203-4.063,8.203c-2.786,0-3.024-2.868-3.024-10.911
	c0-5.335,2.469-8.918,4.379-8.918C223.391,48.536,223.072,51.879,223.072,60.162 M238.759,52.119c0,0-2.707,1.592-3.741,1.592
	c-0.347,0-0.771-0.097-1.183-0.227c-1.474-7.876-6.078-9.488-8.137-9.488c-2.47,0-3.425,0.398-3.425,0.398s-4.461-2.867-7.961-2.867
	c-7.328,0-10.274,7.884-10.274,15.37c0,12.184,6.61,16.803,15.608,16.803c11.994,0,14.17-5.795,14.564-11.13
	c0.334-0.202,0.689-0.423,1.043-0.656c2.311-1.513,4.938-5.176,4.938-5.176L238.759,52.119z"/>
<path fill="#FFFFFF" d="M242.244,44.335c1.695,0.121,8.395,2.075,7.355,5.752c-0.851,3.018-2.168,9.62-2.168,12.638
	c0,3.019,0.094,8.3,2.168,8.3c2.45,0,4.435-10.187,4.904-18.297c0.257-4.424,0.854-5.545,3.396-5.375
	c5.656,0.377,8.393,2.924,8.016,4.81c-0.371,1.853-2.074,9.997-2.074,13.675c0,3.678,0.092,8.018,1.793,8.018
	c2.734,0,6.978-7.356,6.978-7.356l3.489,5.28c0,0-4.623,7.544-10.467,7.544c-7.924,0-10.281-7.64-10.281-7.64
	s-1.697,4.717-6.979,4.717c-5.375,0-11.883-4.717-11.883-17.635c0-6.695,0.85-10.562,1.509-12.071
	C238.66,45.185,239.604,44.147,242.244,44.335"/>
<path fill="#FFFFFF" d="M296.167,74.964c0,0-2.906,7.875-9.682,7.875c-12.779,0-17.17-14.975-17.17-28.014
	c0-16.396,5.161-26.853,5.938-28.4c0.773-1.55,2.502-2.583,4.389-2.583c7.49,0,13.425,6.063,13.425,14.071
	c0,15.234-12.908,29.306-12.908,29.306s1.291,9.682,5.293,9.682c4.52,0,7.485-10.068,7.485-10.068L296.167,74.964z M279.862,56.807
	c0,0,6.355-3.476,7.591-20.119c0.207-2.755-1.484-3.977-3.08-4.023c-0.754-0.022-4.09,11.836-4.859,19.999
	C279.439,53.468,279.862,56.807,279.862,56.807"/>
<path fill="#FFFFFF" d="M306.177,53.385c-1.147,2.391-4.795,2.8-8.143,0.913c-3.351-1.888-5.135-5.354-3.986-7.744
	c1.149-2.39,4.793-2.8,8.144-0.913C305.541,47.528,307.324,50.995,306.177,53.385"/>
<path fill="#FFFFFF" d="M295.617,55.321c2.281,0.408,5.462,2.051,6.492,2.463c1.118,0.447,2.086,2.089,1.864,3.134
	c-0.225,1.045-1.567,9.773-2.014,13.877c-0.438,4.006-0.747,7.535,1.939,7.535c3.28,0,5.893-7.982,5.893-7.982l5.373,10.967
	c0,0-6.789,2.387-10.37,2.387c-7.165,0-11.989-5.426-13.132-17.233c-0.672-6.938,0.299-11.938,0.446-13.056
	C292.261,56.292,293.529,54.949,295.617,55.321"/>
<path fill="#FFFFFF" d="M318.26,95.32c-4.233,0-8.747-3.055-8.424-5.469c0.3-2.229-0.881-17.076-0.67-20.011
	c0.277-3.887,1.528-6.58,2.777-6.457c1.247,0.125,5.951,2.468,6.875,2.783c1.562,0.533,2.365,2.354,2.011,3.674
	c-0.973,3.611-0.999,6.896-0.999,6.896s2.319-9.949,8.245-9.244c4.091,0.488,4.805,1.427,6.64,2.489
	c2.638,1.527,3.311,4.201,2.638,7.15c-2.915,12.775-1.284,22.088,1.587,22.088c2.872,0,5.747-5.871,5.872-7.119
	c0.123-1.248,2.121-1.873,2.121-0.623c0,1.248-1.596,13.772-8.398,13.772c-8.044,0-12.623-6.403-13.122-14.301
	c-0.348-5.485,0.626-11.666-1.459-11.714c-0.885-0.022-1.889,1.93-2.373,3.371c-0.541,1.607-1.33,9.107-1.096,10.217
	C320.759,94.143,320.013,95.32,318.26,95.32"/>
<path fill="#FFFFFF" d="M117.724,96.659h-6.377l0.895-4.263h17.951l-0.86,4.263h-6.449l-3.727,18.536h-5.159L117.724,96.659z"/>
<path fill="#FFFFFF" d="M133.06,92.803c1.612-0.371,4.049-0.574,6.449-0.574c2.293,0,4.658,0.304,6.342,1.318
	c1.577,0.879,2.687,2.333,2.687,4.432c0,3.381-2.365,5.513-5.482,6.459v0.103c1.433,0.608,2.079,2.099,2.293,4.162
	c0.322,2.569,0.501,5.547,0.932,6.494h-5.303c-0.215-0.609-0.465-2.57-0.68-5.38c-0.251-2.772-1.254-3.618-3.297-3.618h-1.577
	l-1.791,8.998h-5.088L133.06,92.803z M136.213,102.544h2.114c2.795,0,4.837-1.59,4.837-3.821c0-1.861-1.613-2.673-3.691-2.673
	c-0.967,0-1.576,0.068-2.006,0.169L136.213,102.544z"/>
<path fill="#FFFFFF" d="M156.421,109.275l-2.831,5.92h-5.518l11.752-22.799h6.628l2.83,22.799h-5.445l-0.466-5.92H156.421z
	 M163.156,105.555l-0.501-4.904c-0.072-1.252-0.214-3.078-0.322-4.465h-0.072c-0.609,1.388-1.289,3.146-1.934,4.465l-2.401,4.904
	H163.156z"/>
<path fill="#FFFFFF" d="M171.9,115.195l4.586-22.799h6.055l3.189,8.693c0.967,2.908,1.612,5.276,2.186,7.779h0.107
	c0.108-2.334,0.466-4.837,1.111-8.186l1.647-8.287h4.837l-4.587,22.799h-5.337l-3.368-9.101c-1.075-3.077-1.72-5.176-2.365-7.948
	h-0.108c-0.25,2.231-0.824,5.479-1.54,9.063l-1.613,7.983h-4.8V115.195z"/>
<path fill="#FFFFFF" d="M196.802,109.918c1.435,0.813,3.476,1.455,5.697,1.455c2.006,0,3.832-0.881,3.832-2.639
	c0-1.32-1.038-2.133-3.261-3.248c-2.543-1.285-4.979-3.077-4.979-6.021c0-4.634,4.228-7.408,9.495-7.408
	c2.938,0,4.658,0.609,5.696,1.116l-1.611,4.06c-0.789-0.406-2.509-1.016-4.479-0.981c-2.438,0-3.69,1.116-3.69,2.368
	c0,1.318,1.47,2.165,3.513,3.247c2.938,1.42,4.801,3.28,4.801,6.021c0,5.074-4.443,7.678-9.817,7.678
	c-3.368-0.032-5.769-0.846-6.915-1.623L196.802,109.918z"/>
<path fill="#FFFFFF" d="M218.516,92.803c1.575-0.371,3.977-0.574,6.305-0.574c2.188,0,4.658,0.338,6.414,1.487
	c1.647,1.05,2.615,2.673,2.615,4.871c0,2.843-1.396,5.041-3.261,6.394c-1.971,1.455-4.801,2.131-7.739,2.131
	c-0.859,0-1.576-0.103-2.113-0.135l-1.647,8.221h-5.052L218.516,92.803z M221.525,102.984c0.537,0.101,1.108,0.168,2.006,0.168
	c3.082,0,5.123-1.859,5.123-4.159c0-2.165-1.684-2.875-3.654-2.875c-0.967,0-1.684,0.067-2.113,0.135L221.525,102.984z"/>
<path fill="#FFFFFF" d="M258.107,101.529c0,4.16-1.541,8.22-4.301,10.757c-2.257,2.063-5.303,3.28-8.923,3.28
	c-6.27,0-9.78-4.192-9.78-9.506c0-4.125,1.612-8.219,4.442-10.789c2.259-2.028,5.338-3.246,8.813-3.246
	C254.739,92.025,258.107,96.084,258.107,101.529z M243.596,97.809c-1.936,1.793-3.011,5.344-3.011,8.084
	c0,3.215,1.541,5.615,5.054,5.615c1.539,0,2.938-0.609,4.049-1.658c1.897-1.791,2.938-5.547,2.938-8.186
	c0-2.841-1.074-5.581-4.873-5.581C246.141,96.084,244.707,96.727,243.596,97.809z"/>
<path fill="#FFFFFF" d="M263.876,92.803c1.612-0.371,4.048-0.574,6.449-0.574c2.293,0,4.658,0.304,6.342,1.318
	c1.576,0.879,2.688,2.333,2.688,4.432c0,3.381-2.365,5.513-5.482,6.459v0.103c1.433,0.608,2.078,2.099,2.293,4.162
	c0.322,2.569,0.502,5.547,0.932,6.494h-5.303c-0.215-0.609-0.466-2.57-0.682-5.38c-0.25-2.772-1.253-3.618-3.295-3.618h-1.576
	l-1.792,8.998h-5.089L263.876,92.803z M267.029,102.544h2.112c2.796,0,4.839-1.59,4.839-3.821c0-1.861-1.611-2.673-3.69-2.673
	c-0.968,0-1.577,0.068-2.007,0.169L267.029,102.544z"/>
<path fill="#FFFFFF" d="M287.847,96.659h-6.378l0.896-4.263h17.951l-0.859,4.263h-6.45l-3.726,18.536h-5.16L287.847,96.659z"/>
</svg>
